<?xml version="1.0" encoding="UTF-8"?>
<!DOCTYPE svg PUBLIC "-//W3C//DTD SVG 1.1//EN" "http://www.w3.org/Graphics/SVG/1.1/DTD/svg11.dtd">
<svg xmlns="http://www.w3.org/2000/svg" version="1.1" width="1000px" height="850px" style="shape-rendering:geometricPrecision; text-rendering:geometricPrecision; image-rendering:optimizeQuality; fill-rule:evenodd; clip-rule:evenodd" xmlns:xlink="http://www.w3.org/1999/xlink">
<g><path style="opacity:0.96" fill="#0c0f0e" d="M 447.5,268.5 C 549.921,265.244 651.587,272.411 752.5,290C 799.076,298.31 844.409,310.977 888.5,328C 916.916,339.029 942.582,354.362 965.5,374C 997.5,407.667 997.5,441.333 965.5,475C 942.582,494.638 916.916,509.971 888.5,521C 840.842,539.165 791.842,552.498 741.5,561C 606.343,582.835 470.676,586.502 334.5,572C 272.699,565.64 212.032,553.64 152.5,536C 125.533,527.678 99.5334,517.011 74.5,504C 54.0055,493.503 36.5055,479.336 22,461.5C 6.90832,439.671 5.57499,417.004 18,393.5C 29.9133,376.588 44.7466,362.755 62.5,352C 103.062,329.253 146.062,312.587 191.5,302C 275.859,282.315 361.192,271.148 447.5,268.5 Z M 472.5,282.5 C 578.306,280.467 682.973,290.3 786.5,312C 833.729,321.853 878.729,337.853 921.5,360C 993.5,403 993.5,446 921.5,489C 878.729,511.147 833.729,527.147 786.5,537C 682.977,558.866 578.31,568.532 472.5,566C 384.85,565.035 298.183,555.368 212.5,537C 165.271,527.147 120.271,511.147 77.5,489C 5.5,446 5.5,403 77.5,360C 120.271,337.853 165.271,321.853 212.5,312C 298.36,293.783 385.027,283.949 472.5,282.5 Z M 235.5,370.5 C 243.507,370.334 251.507,370.5 259.5,371C 275.377,373.882 282.543,383.382 281,399.5C 277.815,410.355 270.648,416.522 259.5,418C 251.507,418.5 243.507,418.666 235.5,418.5C 235.5,402.5 235.5,386.5 235.5,370.5 Z M 432.5,370.5 C 452.989,367.498 470.489,373.164 485,387.5C 501.65,411.499 499.817,433.999 479.5,455C 473.67,459.915 467.004,463.248 459.5,465C 450.541,466.217 441.541,466.717 432.5,466.5C 432.5,434.5 432.5,402.5 432.5,370.5 Z M 819.5,370.5 C 825.509,370.334 831.509,370.501 837.5,371C 851.181,374.369 856.014,382.869 852,396.5C 848.909,402.297 844.076,405.464 837.5,406C 831.509,406.499 825.509,406.666 819.5,406.5C 819.5,394.5 819.5,382.5 819.5,370.5 Z M 359.5,384.5 C 365.057,397.297 370.39,410.297 375.5,423.5C 365.188,424.499 354.855,424.832 344.5,424.5C 349.105,411.019 354.105,397.685 359.5,384.5 Z M 819.5,418.5 C 827.84,418.334 836.173,418.5 844.5,419C 863.893,424.619 869.726,436.786 862,455.5C 857.617,461.441 851.784,464.941 844.5,466C 836.173,466.5 827.84,466.666 819.5,466.5C 819.5,450.5 819.5,434.5 819.5,418.5 Z"/></g>
<g><path style="opacity:0.958" fill="#0c100e" d="M 123.5,358.5 C 151.835,358.333 180.169,358.5 208.5,359C 211.57,361.569 212.237,364.736 210.5,368.5C 209.975,369.192 209.308,369.692 208.5,370C 196.505,370.5 184.505,370.667 172.5,370.5C 172.667,405.502 172.5,440.502 172,475.5C 171.057,477.954 169.224,478.954 166.5,478.5C 163.675,478.881 161.509,477.881 160,475.5C 159.5,440.502 159.333,405.502 159.5,370.5C 147.495,370.667 135.495,370.5 123.5,370C 119.555,366.169 119.555,362.336 123.5,358.5 Z"/></g>
<g><path style="opacity:0.943" fill="#0c0f0e" d="M 224.5,358.5 C 238.837,358.333 253.171,358.5 267.5,359C 291.297,368.097 299.464,384.93 292,409.5C 287.884,417.283 282.05,423.45 274.5,428C 283.125,441.416 291.625,454.916 300,468.5C 302.167,477 299,480.167 290.5,478C 280.126,462.755 270.126,447.255 260.5,431.5C 252.193,430.502 243.86,430.169 235.5,430.5C 235.667,445.17 235.5,459.837 235,474.5C 233.982,477.683 231.815,479.016 228.5,478.5C 225.185,479.016 223.018,477.683 222,474.5C 221.333,437.167 221.333,399.833 222,362.5C 222.662,361.016 223.496,359.683 224.5,358.5 Z M 235.5,370.5 C 235.5,386.5 235.5,402.5 235.5,418.5C 243.507,418.666 251.507,418.5 259.5,418C 270.648,416.522 277.815,410.355 281,399.5C 282.543,383.382 275.377,373.882 259.5,371C 251.507,370.5 243.507,370.334 235.5,370.5 Z"/></g>
<g><path style="opacity:0.938" fill="#0c0f0e" d="M 355.5,358.5 C 359.603,357.769 363.103,358.769 366,361.5C 380,397.5 394,433.5 408,469.5C 408.771,477.386 405.271,480.219 397.5,478C 397,477.5 396.5,477 396,476.5C 390.833,463.5 385.667,450.5 380.5,437.5C 366.846,436.334 353.179,436.167 339.5,437C 334.037,450.095 328.704,463.262 323.5,476.5C 314.69,480.85 310.857,478.183 312,468.5C 326.257,431.666 340.757,394.999 355.5,358.5 Z M 359.5,384.5 C 354.105,397.685 349.105,411.019 344.5,424.5C 354.855,424.832 365.188,424.499 375.5,423.5C 370.39,410.297 365.057,397.297 359.5,384.5 Z"/></g>
<g><path style="opacity:0.929" fill="#0c100e" d="M 421.5,358.5 C 434.504,358.333 447.504,358.5 460.5,359C 495.768,368.67 511.935,391.837 509,428.5C 503.253,455.247 487.086,471.747 460.5,478C 447.5,478.667 434.5,478.667 421.5,478C 420.667,477.167 419.833,476.333 419,475.5C 418.333,437.5 418.333,399.5 419,361.5C 420.045,360.627 420.878,359.627 421.5,358.5 Z M 432.5,370.5 C 432.5,402.5 432.5,434.5 432.5,466.5C 441.541,466.717 450.541,466.217 459.5,465C 467.004,463.248 473.67,459.915 479.5,455C 499.817,433.999 501.65,411.499 485,387.5C 470.489,373.164 452.989,367.498 432.5,370.5 Z"/></g>
<g><path style="opacity:0.978" fill="#0c0f0e" d="M 522.5,358.5 C 549.169,358.333 575.835,358.5 602.5,359C 606.5,362.667 606.5,366.333 602.5,370C 579.502,370.5 556.502,370.667 533.5,370.5C 533.5,384.5 533.5,398.5 533.5,412.5C 550.503,412.333 567.503,412.5 584.5,413C 588.5,416.667 588.5,420.333 584.5,424C 567.503,424.5 550.503,424.667 533.5,424.5C 533.5,438.5 533.5,452.5 533.5,466.5C 556.502,466.333 579.502,466.5 602.5,467C 606.5,470.667 606.5,474.333 602.5,478C 575.833,478.667 549.167,478.667 522.5,478C 522,477.5 521.5,477 521,476.5C 520.333,437.833 520.333,399.167 521,360.5C 521.717,359.956 522.217,359.289 522.5,358.5 Z"/></g>
<g><path style="opacity:0.917" fill="#0c100e" d="M 618.5,358.5 C 620.857,358.337 623.19,358.503 625.5,359C 626.667,359.5 627.5,360.333 628,361.5C 628.5,378.497 628.667,395.497 628.5,412.5C 647.833,412.5 667.167,412.5 686.5,412.5C 686.333,396.163 686.5,379.83 687,363.5C 687.273,361.671 688.107,360.171 689.5,359C 693.591,357.773 697.091,358.606 700,361.5C 700.667,399.5 700.667,437.5 700,475.5C 697.091,478.394 693.591,479.227 689.5,478C 688.107,476.829 687.273,475.329 687,473.5C 686.5,457.17 686.333,440.837 686.5,424.5C 667.167,424.5 647.833,424.5 628.5,424.5C 628.667,441.503 628.5,458.503 628,475.5C 626.704,477.815 624.704,478.815 622,478.5C 619.296,478.815 617.296,477.815 616,475.5C 615.333,437.5 615.333,399.5 616,361.5C 616.698,360.309 617.531,359.309 618.5,358.5 Z"/></g>
<g><path style="opacity:0.911" fill="#0c0f0e" d="M 713.5,358.5 C 716.187,358.336 718.854,358.503 721.5,359C 722.701,359.903 723.535,361.069 724,362.5C 724.333,389.5 724.667,416.5 725,443.5C 733.647,465.049 748.48,470.882 769.5,461C 776.05,456.076 780.217,449.576 782,441.5C 782.333,414.833 782.667,388.167 783,361.5C 786.731,357.95 790.731,357.617 795,360.5C 795.667,388.833 795.667,417.167 795,445.5C 787.192,470.835 770.025,481.669 743.5,478C 724.914,472.747 714.081,460.58 711,441.5C 710.333,415.167 710.333,388.833 711,362.5C 711.662,361.016 712.496,359.683 713.5,358.5 Z"/></g>
<g><path style="opacity:0.954" fill="#0c0f0e" d="M 808.5,358.5 C 821.907,358.056 835.24,358.556 848.5,360C 864.224,368.284 870.057,381.117 866,398.5C 864.337,402.496 862.171,406.163 859.5,409.5C 877.843,421.36 883.343,437.693 876,458.5C 865.527,475.725 850.193,482.392 830,478.5C 822.833,478.333 815.667,478.167 808.5,478C 808,477.5 807.5,477 807,476.5C 806.333,437.833 806.333,399.167 807,360.5C 807.717,359.956 808.217,359.289 808.5,358.5 Z M 819.5,370.5 C 819.5,382.5 819.5,394.5 819.5,406.5C 825.509,406.666 831.509,406.499 837.5,406C 844.076,405.464 848.909,402.297 852,396.5C 856.014,382.869 851.181,374.369 837.5,371C 831.509,370.501 825.509,370.334 819.5,370.5 Z M 819.5,418.5 C 819.5,434.5 819.5,450.5 819.5,466.5C 827.84,466.666 836.173,466.5 844.5,466C 851.784,464.941 857.617,461.441 862,455.5C 869.726,436.786 863.893,424.619 844.5,419C 836.173,418.5 827.84,418.334 819.5,418.5 Z"/></g>
</svg>
